<mxfile host="65bd71144e">
    <diagram id="Dug-Fxku5GONwv55dbdJ" name="Page-1">
        <mxGraphModel dx="2370" dy="1928" grid="1" gridSize="10" guides="1" tooltips="1" connect="1" arrows="1" fold="1" page="1" pageScale="1" pageWidth="850" pageHeight="1100" math="0" shadow="0">
            <root>
                <mxCell id="0"/>
                <mxCell id="1" parent="0"/>
                <mxCell id="8" value="" style="whiteSpace=wrap;html=1;" parent="1" vertex="1">
                    <mxGeometry x="888" y="100" width="775" height="360" as="geometry"/>
                </mxCell>
                <mxCell id="9" value="" style="whiteSpace=wrap;html=1;" parent="1" vertex="1">
                    <mxGeometry x="913" y="150" width="220" height="280" as="geometry"/>
                </mxCell>
                <mxCell id="27" value="&lt;ul&gt;&lt;li&gt;&lt;span&gt;Adress&lt;/span&gt;&lt;/li&gt;&lt;li&gt;&lt;span&gt;Age&lt;/span&gt;&lt;br&gt;&lt;/li&gt;&lt;li&gt;Email&lt;/li&gt;&lt;li&gt;Phone&lt;/li&gt;&lt;li&gt;Credit Card&lt;/li&gt;&lt;/ul&gt;" style="text;strokeColor=none;fillColor=none;html=1;whiteSpace=wrap;verticalAlign=middle;overflow=hidden;" parent="1" vertex="1">
                    <mxGeometry x="923" y="170" width="200" height="240" as="geometry"/>
                </mxCell>
                <mxCell id="67" value="" style="group" parent="1" vertex="1" connectable="0">
                    <mxGeometry x="893" y="520" width="770" height="430" as="geometry"/>
                </mxCell>
                <mxCell id="10" value="" style="whiteSpace=wrap;html=1;" parent="67" vertex="1">
                    <mxGeometry width="770" height="430" as="geometry"/>
                </mxCell>
                <mxCell id="47" value="&lt;font style=&quot;font-size: 24px&quot;&gt;Orders&lt;/font&gt;" style="text;html=1;strokeColor=none;fillColor=none;align=center;verticalAlign=middle;whiteSpace=wrap;rounded=0;fontSize=18;" parent="67" vertex="1">
                    <mxGeometry x="342.25" y="30" width="85.5" height="30" as="geometry"/>
                </mxCell>
                <mxCell id="55" value="" style="group" parent="67" vertex="1" connectable="0">
                    <mxGeometry x="48.25" y="120" width="670" height="80" as="geometry"/>
                </mxCell>
                <mxCell id="48" value="" style="rounded=1;whiteSpace=wrap;html=1;fontSize=18;strokeColor=#3A5431;fillColor=#6d8764;fontColor=#ffffff;" parent="55" vertex="1">
                    <mxGeometry width="670" height="80" as="geometry"/>
                </mxCell>
                <mxCell id="51" value="PLATE" style="rounded=0;whiteSpace=wrap;html=1;fontSize=18;strokeColor=#314354;fillColor=#647687;fontColor=#ffffff;" parent="55" vertex="1">
                    <mxGeometry x="40" y="10" width="160" height="60" as="geometry"/>
                </mxCell>
                <mxCell id="53" value="STATUS / RATING" style="rounded=0;whiteSpace=wrap;html=1;fontSize=18;strokeColor=#314354;fillColor=#647687;fontColor=#ffffff;" parent="55" vertex="1">
                    <mxGeometry x="230" y="10" width="190" height="60" as="geometry"/>
                </mxCell>
                <mxCell id="54" value="PRICE / PAYMENT METHOD" style="rounded=0;whiteSpace=wrap;html=1;fontSize=18;strokeColor=#314354;fillColor=#647687;fontColor=#ffffff;" parent="55" vertex="1">
                    <mxGeometry x="440" y="10" width="210" height="60" as="geometry"/>
                </mxCell>
                <mxCell id="56" value="" style="group" parent="67" vertex="1" connectable="0">
                    <mxGeometry x="48.25" y="220" width="670" height="80" as="geometry"/>
                </mxCell>
                <mxCell id="57" value="" style="rounded=1;whiteSpace=wrap;html=1;fontSize=18;strokeColor=#3A5431;fillColor=#6d8764;fontColor=#ffffff;" parent="56" vertex="1">
                    <mxGeometry width="670" height="80" as="geometry"/>
                </mxCell>
                <mxCell id="58" value="PLATE" style="rounded=0;whiteSpace=wrap;html=1;fontSize=18;strokeColor=#314354;fillColor=#647687;fontColor=#ffffff;" parent="56" vertex="1">
                    <mxGeometry x="40" y="10" width="160" height="60" as="geometry"/>
                </mxCell>
                <mxCell id="59" value="STATUS / RATING" style="rounded=0;whiteSpace=wrap;html=1;fontSize=18;strokeColor=#314354;fillColor=#647687;fontColor=#ffffff;" parent="56" vertex="1">
                    <mxGeometry x="230" y="10" width="190" height="60" as="geometry"/>
                </mxCell>
                <mxCell id="60" value="PRICE / PAYMENT METHOD" style="rounded=0;whiteSpace=wrap;html=1;fontSize=18;strokeColor=#314354;fillColor=#647687;fontColor=#ffffff;" parent="56" vertex="1">
                    <mxGeometry x="440" y="10" width="210" height="60" as="geometry"/>
                </mxCell>
                <mxCell id="62" value="" style="group" parent="67" vertex="1" connectable="0">
                    <mxGeometry x="50.75" y="320" width="670" height="80" as="geometry"/>
                </mxCell>
                <mxCell id="63" value="" style="rounded=1;whiteSpace=wrap;html=1;fontSize=18;strokeColor=#3A5431;fillColor=#6d8764;fontColor=#ffffff;" parent="62" vertex="1">
                    <mxGeometry width="670" height="80" as="geometry"/>
                </mxCell>
                <mxCell id="64" value="PLATE" style="rounded=0;whiteSpace=wrap;html=1;fontSize=18;strokeColor=#314354;fillColor=#647687;fontColor=#ffffff;" parent="62" vertex="1">
                    <mxGeometry x="40" y="10" width="160" height="60" as="geometry"/>
                </mxCell>
                <mxCell id="65" value="STATUS / RATING" style="rounded=0;whiteSpace=wrap;html=1;fontSize=18;strokeColor=#314354;fillColor=#647687;fontColor=#ffffff;" parent="62" vertex="1">
                    <mxGeometry x="230" y="10" width="190" height="60" as="geometry"/>
                </mxCell>
                <mxCell id="66" value="PRICE / PAYMENT METHOD" style="rounded=0;whiteSpace=wrap;html=1;fontSize=18;strokeColor=#314354;fillColor=#647687;fontColor=#ffffff;" parent="62" vertex="1">
                    <mxGeometry x="440" y="10" width="210" height="60" as="geometry"/>
                </mxCell>
                <mxCell id="70" value="" style="whiteSpace=wrap;html=1;" parent="1" vertex="1">
                    <mxGeometry x="1770" y="105" width="690" height="665" as="geometry"/>
                </mxCell>
                <mxCell id="71" value="&lt;font style=&quot;font-size: 24px&quot;&gt;Profile&lt;/font&gt;" style="text;html=1;strokeColor=none;fillColor=none;align=center;verticalAlign=middle;whiteSpace=wrap;rounded=0;fontSize=18;" parent="1" vertex="1">
                    <mxGeometry x="1387.5" y="115" width="85.5" height="30" as="geometry"/>
                </mxCell>
                <mxCell id="72" value="&lt;font style=&quot;font-size: 24px&quot;&gt;Personal Info&lt;/font&gt;" style="text;html=1;strokeColor=none;fillColor=none;align=center;verticalAlign=middle;whiteSpace=wrap;rounded=0;fontSize=18;" parent="1" vertex="1">
                    <mxGeometry x="950" y="115" width="159.75" height="30" as="geometry"/>
                </mxCell>
                <mxCell id="73" value="" style="group" parent="1" vertex="1" connectable="0">
                    <mxGeometry x="1790" y="160" width="320" height="240" as="geometry"/>
                </mxCell>
                <mxCell id="74" value="" style="rounded=1;whiteSpace=wrap;html=1;fontSize=18;strokeColor=#3A5431;fillColor=#6d8764;fontColor=#ffffff;" parent="73" vertex="1">
                    <mxGeometry y="-20" width="320" height="260" as="geometry"/>
                </mxCell>
                <mxCell id="75" value="&lt;font style=&quot;font-size: 20px&quot;&gt;&lt;b&gt;Post&lt;/b&gt;&lt;/font&gt;" style="rounded=0;whiteSpace=wrap;html=1;fontSize=18;strokeColor=#314354;fillColor=#647687;fontColor=#ffffff;" parent="73" vertex="1">
                    <mxGeometry x="20" y="10" width="280" height="116.47" as="geometry"/>
                </mxCell>
                <mxCell id="79" value="&lt;font style=&quot;font-size: 20px&quot;&gt;&lt;b&gt;Post Text&lt;/b&gt;&lt;/font&gt;" style="text;html=1;strokeColor=none;fillColor=none;align=center;verticalAlign=middle;whiteSpace=wrap;rounded=0;fontSize=24;" parent="73" vertex="1">
                    <mxGeometry x="33.42671641791044" y="169.99647058823527" width="253.13432835820893" height="21.176470588235293" as="geometry"/>
                </mxCell>
                <mxCell id="92" value="" style="group" parent="1" vertex="1" connectable="0">
                    <mxGeometry x="1183" y="150" width="460" height="280" as="geometry"/>
                </mxCell>
                <mxCell id="39" value="" style="whiteSpace=wrap;html=1;" parent="92" vertex="1">
                    <mxGeometry width="460" height="280" as="geometry"/>
                </mxCell>
                <mxCell id="40" value="&lt;ul&gt;&lt;li&gt;&lt;font style=&quot;font-size: 18px&quot;&gt;&lt;b&gt;Interests&lt;/b&gt;&lt;/font&gt;&lt;/li&gt;&lt;li&gt;&lt;font style=&quot;font-size: 18px&quot;&gt;&lt;b&gt;Age&lt;/b&gt;&lt;/font&gt;&lt;/li&gt;&lt;li&gt;&lt;font style=&quot;font-size: 18px&quot;&gt;&lt;b&gt;Funny Message&lt;/b&gt;&lt;/font&gt;&lt;/li&gt;&lt;/ul&gt;" style="text;strokeColor=none;fillColor=none;html=1;whiteSpace=wrap;verticalAlign=middle;overflow=hidden;" parent="92" vertex="1">
                    <mxGeometry x="10" y="20" width="280" height="90" as="geometry"/>
                </mxCell>
                <mxCell id="43" value="" style="group" parent="92" vertex="1" connectable="0">
                    <mxGeometry x="320" y="10" width="130" height="130" as="geometry"/>
                </mxCell>
                <mxCell id="90" value="" style="group" parent="43" vertex="1" connectable="0">
                    <mxGeometry x="-11" width="130" height="130" as="geometry"/>
                </mxCell>
                <mxCell id="41" value="" style="ellipse;whiteSpace=wrap;html=1;aspect=fixed;" parent="90" vertex="1">
                    <mxGeometry width="130" height="130" as="geometry"/>
                </mxCell>
                <mxCell id="89" value="" style="shape=actor;whiteSpace=wrap;html=1;fontSize=18;strokeColor=#36393d;fillColor=#cce5ff;" parent="90" vertex="1">
                    <mxGeometry x="29" y="22.5" width="72" height="85" as="geometry"/>
                </mxCell>
                <mxCell id="44" value="Photos" style="rounded=0;whiteSpace=wrap;html=1;fillColor=#001E59;strokeColor=#000C4D;fontColor=#ffffff;" parent="92" vertex="1">
                    <mxGeometry x="32.5" y="180" width="120" height="60" as="geometry"/>
                </mxCell>
                <mxCell id="45" value="Photos" style="rounded=0;whiteSpace=wrap;html=1;fillColor=#001E59;strokeColor=#000C4D;fontColor=#ffffff;" parent="92" vertex="1">
                    <mxGeometry x="180" y="180" width="120" height="60" as="geometry"/>
                </mxCell>
                <mxCell id="46" value="Photos" style="rounded=0;whiteSpace=wrap;html=1;fillColor=#001E59;strokeColor=#000C4D;fontColor=#ffffff;" parent="92" vertex="1">
                    <mxGeometry x="320" y="180" width="120" height="60" as="geometry"/>
                </mxCell>
                <mxCell id="118" value="" style="group" parent="1" vertex="1" connectable="0">
                    <mxGeometry x="1810" y="580" width="580" height="150" as="geometry"/>
                </mxCell>
                <mxCell id="113" value="" style="whiteSpace=wrap;html=1;" parent="118" vertex="1">
                    <mxGeometry width="580" height="150" as="geometry"/>
                </mxCell>
                <mxCell id="114" value="&lt;ul&gt;&lt;li&gt;&lt;font style=&quot;font-size: 18px&quot;&gt;&lt;b&gt;Hello Friend&lt;/b&gt;&lt;/font&gt;&lt;/li&gt;&lt;/ul&gt;" style="text;strokeColor=none;fillColor=none;html=1;whiteSpace=wrap;verticalAlign=middle;overflow=hidden;" parent="118" vertex="1">
                    <mxGeometry x="19.99869565217388" y="41.25" width="353.0434782608696" height="67.5" as="geometry"/>
                </mxCell>
                <mxCell id="115" value="" style="group" parent="118" vertex="1" connectable="0">
                    <mxGeometry x="449.99869565217386" y="15" width="120" height="120" as="geometry"/>
                </mxCell>
                <mxCell id="116" value="" style="ellipse;whiteSpace=wrap;html=1;aspect=fixed;" parent="115" vertex="1">
                    <mxGeometry width="120" height="120" as="geometry"/>
                </mxCell>
                <mxCell id="117" value="" style="shape=actor;whiteSpace=wrap;html=1;fontSize=18;strokeColor=#36393d;fillColor=#cce5ff;" parent="115" vertex="1">
                    <mxGeometry x="27.31" y="21.25" width="65.39" height="77.5" as="geometry"/>
                </mxCell>
                <mxCell id="124" value="" style="group" parent="1" vertex="1" connectable="0">
                    <mxGeometry x="2125" y="145" width="290" height="250" as="geometry"/>
                </mxCell>
                <mxCell id="81" value="" style="rounded=1;whiteSpace=wrap;html=1;fontSize=18;strokeColor=#3A5431;fillColor=#6d8764;fontColor=#ffffff;" parent="124" vertex="1">
                    <mxGeometry width="290" height="250" as="geometry"/>
                </mxCell>
                <mxCell id="120" value="&lt;b&gt;&lt;font style=&quot;font-size: 20px&quot;&gt;Group&lt;/font&gt;&lt;/b&gt;" style="ellipse;whiteSpace=wrap;html=1;fontSize=18;strokeColor=#6D1F00;fillColor=#a0522d;fontColor=#ffffff;" parent="124" vertex="1">
                    <mxGeometry x="160" y="5" width="120" height="110" as="geometry"/>
                </mxCell>
                <mxCell id="121" value="&lt;b&gt;&lt;font style=&quot;font-size: 20px&quot;&gt;Group&lt;/font&gt;&lt;/b&gt;" style="ellipse;whiteSpace=wrap;html=1;fontSize=18;strokeColor=#432D57;fillColor=#76608a;fontColor=#ffffff;" parent="124" vertex="1">
                    <mxGeometry x="20" y="5" width="120" height="110" as="geometry"/>
                </mxCell>
                <mxCell id="122" value="&lt;b&gt;&lt;font style=&quot;font-size: 20px&quot;&gt;Group&lt;/font&gt;&lt;/b&gt;" style="ellipse;whiteSpace=wrap;html=1;fontSize=18;strokeColor=#B20000;fillColor=#e51400;fontColor=#ffffff;" parent="124" vertex="1">
                    <mxGeometry x="20" y="125" width="120" height="110" as="geometry"/>
                </mxCell>
                <mxCell id="123" value="&lt;b&gt;&lt;font style=&quot;font-size: 20px&quot;&gt;Group&lt;/font&gt;&lt;/b&gt;" style="ellipse;whiteSpace=wrap;html=1;fontSize=18;strokeColor=#B09500;fillColor=#e3c800;fontColor=#000000;" parent="124" vertex="1">
                    <mxGeometry x="160" y="125" width="120" height="110" as="geometry"/>
                </mxCell>
                <mxCell id="125" value="" style="group" vertex="1" connectable="0" parent="1">
                    <mxGeometry x="1810" y="420" width="580" height="150" as="geometry"/>
                </mxCell>
                <mxCell id="126" value="" style="whiteSpace=wrap;html=1;" vertex="1" parent="125">
                    <mxGeometry width="580" height="150" as="geometry"/>
                </mxCell>
                <mxCell id="127" value="&lt;ul&gt;&lt;li&gt;&lt;font style=&quot;font-size: 18px&quot;&gt;&lt;b&gt;Hi Amigo&lt;/b&gt;&lt;/font&gt;&lt;/li&gt;&lt;/ul&gt;" style="text;strokeColor=none;fillColor=none;html=1;whiteSpace=wrap;verticalAlign=middle;overflow=hidden;" vertex="1" parent="125">
                    <mxGeometry x="19.99869565217388" y="41.25" width="353.0434782608696" height="67.5" as="geometry"/>
                </mxCell>
                <mxCell id="128" value="" style="group" vertex="1" connectable="0" parent="125">
                    <mxGeometry x="449.99869565217386" y="15" width="120" height="120" as="geometry"/>
                </mxCell>
                <mxCell id="129" value="" style="ellipse;whiteSpace=wrap;html=1;aspect=fixed;" vertex="1" parent="128">
                    <mxGeometry width="120" height="120" as="geometry"/>
                </mxCell>
                <mxCell id="130" value="" style="shape=actor;whiteSpace=wrap;html=1;fontSize=18;strokeColor=#36393d;fillColor=#cce5ff;" vertex="1" parent="128">
                    <mxGeometry x="27.31" y="21.25" width="65.39" height="77.5" as="geometry"/>
                </mxCell>
            </root>
        </mxGraphModel>
    </diagram>
</mxfile>